<svg xmlns="http://www.w3.org/2000/svg" xmlns:xlink="http://www.w3.org/1999/xlink" version="1.1" x="0px" y="0px" viewBox="0 0 512 640" enable-background="new 0 0 512 512" xml:space="preserve"><g><g><circle cx="184.166" cy="256.166" r="24"/><circle cx="256.166" cy="256.166" r="24"/><circle cx="328.166" cy="256.166" r="24"/></g><g><path d="M168,392c-6.143,0-12.285-2.344-16.971-7.029l-112-112c-9.373-9.373-9.373-24.569,0-33.941l112-112    c9.373-9.372,24.568-9.372,33.941,0c9.371,9.372,9.371,24.568,0,33.941L89.941,256l95.029,95.029    c9.371,9.372,9.371,24.568,0,33.941C180.283,389.656,174.143,392,168,392z"/><path d="M344,392c6.143,0,12.285-2.344,16.971-7.029l112-112c9.373-9.373,9.373-24.569,0-33.941l-112-112    c-9.373-9.372-24.568-9.372-33.941,0c-9.371,9.372-9.371,24.568,0,33.941L422.059,256l-95.029,95.029    c-9.371,9.372-9.371,24.568,0,33.941C331.717,389.656,337.857,392,344,392z"/></g></g><text x="0" y="527" fill="#000000" font-size="5px" font-weight="bold" font-family="'Helvetica Neue', Helvetica, Arial-Unicode, Arial, Sans-serif">Created by Bluetip Design</text><text x="0" y="532" fill="#000000" font-size="5px" font-weight="bold" font-family="'Helvetica Neue', Helvetica, Arial-Unicode, Arial, Sans-serif">from the Noun Project</text></svg>