<svg xmlns="http://www.w3.org/2000/svg" xmlns:xlink="http://www.w3.org/1999/xlink" version="1.1" x="0px" y="0px" viewBox="0 0 100 125" enable-background="new 0 0 100 100" xml:space="preserve"><g><path d="M52.943,30.009c-0.816,0.353-1.861,0.548-2.942,0.548s-2.126-0.195-2.945-0.548l-6.512-2.821l-4.732-2.049   c-0.188,0.929-0.287,1.89-0.287,2.874c0,7.982,6.494,16.455,14.476,16.455c7.983,0,14.476-8.472,14.476-16.455   c0-0.984-0.099-1.945-0.287-2.874l-4.73,2.049L52.943,30.009z"/><path d="M74.968,57.788c0.422,0,0.828,0.063,1.216,0.169c-2.128-6.912-8.037-12.164-15.314-13.34   c-2.809,2.14-6.313,3.413-10.108,3.413h-1.524c-3.794,0-7.297-1.273-10.105-3.413c-7.279,1.176-13.188,6.428-15.316,13.34   c0.388-0.106,0.795-0.169,1.217-0.169H74.968z"/><path d="M69.652,14.824c1.184-0.515,1.184-1.353,0-1.866L52.154,5.384C51.562,5.128,50.781,5,50.001,5   c-0.781,0-1.562,0.128-2.155,0.384l-17.499,7.573c-1.184,0.514-1.184,1.352,0,1.866l1.327,0.573l-0.112,0.891   c-0.508,0.086-0.895,0.529-0.895,1.061c0,0.478,0.313,0.887,0.746,1.024l-0.804,11.274c-0.034,0.473,0.06,1.222,0.209,1.669   l0.654,1.959c0.073,0.225,0.172,0.336,0.27,0.336c0.097,0,0.195-0.111,0.271-0.336l0.654-1.959   c0.149-0.448,0.244-1.196,0.209-1.669l-0.803-11.274c0.429-0.139,0.745-0.546,0.745-1.024c0-0.531-0.387-0.974-0.897-1.061   l-0.102-0.829l3.061,1.326l1.501,0.65v5.785l4.953,2.144l6.513,2.821c0.593,0.256,1.374,0.384,2.155,0.384   c0.78,0,1.561-0.128,2.153-0.384l6.514-2.821l4.954-2.145v-5.785l1.499-0.65L69.652,14.824z"/><path d="M73.58,94.057c0-0.521-0.423-0.942-0.943-0.942H27.363c-0.521,0-0.943,0.422-0.943,0.942c0,0.521,0.422,0.943,0.943,0.943   h45.273C73.157,95,73.58,94.578,73.58,94.057z"/><path d="M76.184,59.215c-0.388-0.106-0.794-0.17-1.216-0.17H25.033c-0.422,0-0.829,0.063-1.217,0.17   c-1.94,0.535-3.37,2.311-3.37,4.418v0.106l0.019,0.106l4.145,24.039c0.062,2.475,2.095,4.47,4.585,4.47h41.613   c2.49,0,4.522-1.995,4.585-4.47l4.144-24.039l0.019-0.106v-0.106C79.554,61.525,78.124,59.749,76.184,59.215z M50.001,77.259   c-1.091,0-1.976-0.883-1.976-1.975c0-1.09,0.885-1.973,1.976-1.973c1.09,0,1.973,0.883,1.973,1.973   C51.974,76.376,51.091,77.259,50.001,77.259z"/></g><text x="0" y="115" fill="#000000" font-size="5px" font-weight="bold" font-family="'Helvetica Neue', Helvetica, Arial-Unicode, Arial, Sans-serif">Created by Wilson Joseph</text><text x="0" y="120" fill="#000000" font-size="5px" font-weight="bold" font-family="'Helvetica Neue', Helvetica, Arial-Unicode, Arial, Sans-serif">from the Noun Project</text></svg>