<svg xmlns="http://www.w3.org/2000/svg" xmlns:xlink="http://www.w3.org/1999/xlink" version="1.1" x="0px" y="0px" viewBox="0 0 100 125" style="enable-background:new 0 0 100 100;" xml:space="preserve"><path d="M50,17.3c-14.2,0-25.8,11.6-25.8,25.8c0,9.2,4.3,18.7,12.6,27.6c6.1,6.6,12.2,10.5,12.5,10.7L50,82l0.8-0.5  c0.3-0.2,6.3-4.3,12.4-11c8.2-9,12.6-18.4,12.6-27.3C75.8,28.9,64.2,17.3,50,17.3z M50,78.3c-1.8-1.3-6.5-4.7-11.1-9.7  c-5.3-5.8-11.7-14.9-11.7-25.5c0-12.6,10.2-22.8,22.8-22.8s22.8,10.2,22.8,22.8C72.8,60.7,54.1,75.3,50,78.3z M50,31.8  c-5.7,0-10.3,4.6-10.3,10.3S44.3,52.5,50,52.5s10.3-4.6,10.3-10.3S55.7,31.8,50,31.8z M50,49.5c-4,0-7.3-3.3-7.3-7.3  s3.3-7.3,7.3-7.3s7.3,3.3,7.3,7.3S54,49.5,50,49.5z"/><text x="0" y="115" fill="#000000" font-size="5px" font-weight="bold" font-family="'Helvetica Neue', Helvetica, Arial-Unicode, Arial, Sans-serif">Created by Chinnaking</text><text x="0" y="120" fill="#000000" font-size="5px" font-weight="bold" font-family="'Helvetica Neue', Helvetica, Arial-Unicode, Arial, Sans-serif">from the Noun Project</text></svg>