<svg xmlns="http://www.w3.org/2000/svg" data-name="Layer 1" viewBox="0 0 100 125" x="0px" y="0px"><title>Artboard 1</title><path d="M96.22,53.31,74.1,18.77a9.35,9.35,0,0,0-7.6-4.41,9,9,0,0,0-9.2,9V28.9A1.34,1.34,0,0,1,56,30.24H44A1.34,1.34,0,0,1,42.7,28.9V23.65a9.22,9.22,0,0,0-6.88-9,9,9,0,0,0-9.76,3.9L3.78,53.31h0A21.08,21.08,0,1,0,41.66,71.09a1.94,1.94,0,0,1,1.85-1.33h13a1.94,1.94,0,0,1,1.85,1.33A21.08,21.08,0,1,0,96.22,53.31ZM21.61,76.41A11.85,11.85,0,1,1,33.47,64.56,11.85,11.85,0,0,1,21.61,76.41ZM50,62.58a3.82,3.82,0,1,1,3.82-3.82A3.82,3.82,0,0,1,50,62.58ZM78.39,76.41A11.85,11.85,0,1,1,90.24,64.56,11.85,11.85,0,0,1,78.39,76.41Z"/><text x="0" y="115" fill="#000000" font-size="5px" font-weight="bold" font-family="'Helvetica Neue', Helvetica, Arial-Unicode, Arial, Sans-serif">Created by Gregor Cresnar</text><text x="0" y="120" fill="#000000" font-size="5px" font-weight="bold" font-family="'Helvetica Neue', Helvetica, Arial-Unicode, Arial, Sans-serif">from the Noun Project</text></svg>