<svg xmlns="http://www.w3.org/2000/svg" xmlns:xlink="http://www.w3.org/1999/xlink" version="1.1" x="0px" y="0px" viewBox="0 0 24 30" enable-background="new 0 0 24 24" xml:space="preserve"><g><path d="M16.013,20.05c0.076,0.076,0.179,0.117,0.283,0.117c0.034,0,0.069-0.004,0.104-0.014l1.559-0.417   c0.138-0.037,0.246-0.145,0.283-0.283l0.418-1.558c0.037-0.138-0.003-0.285-0.104-0.386l-1.141-1.141   c-0.102-0.102-0.248-0.142-0.387-0.104l-1.559,0.417c-0.138,0.037-0.246,0.145-0.283,0.283l-0.418,1.558   c-0.037,0.138,0.003,0.285,0.104,0.386L16.013,20.05z M15.9,17.395l1.112-0.297l0.814,0.814l-0.298,1.112l-1.112,0.297   l-0.814-0.814L15.9,17.395z"/><path d="M23.411,7.615c-0.265-0.268-0.529-0.535-0.801-0.798c-0.148-0.142-0.289-0.246-0.432-0.318   c-0.484-0.245-0.863-0.162-1.126-0.018c0.063-0.116,0.104-0.229,0.124-0.338c0.073-0.41-0.059-0.797-0.392-1.152   c-0.148-0.158-0.303-0.31-0.457-0.462l-0.109-0.107c-0.194-0.193-0.393-0.384-0.59-0.574c-0.23-0.223-0.461-0.445-0.686-0.669   c-2.515-2.515-6.384-1.609-7.206-1.25c-0.123,0.054-0.411,0.179-0.399,0.486c0.011,0.299,0.238,0.44,1.198,1.033   c0.612,0.379,1.366,0.846,1.829,1.266c-0.364,0.456-0.557,1.125-0.131,1.549l0.174,0.174l-3.068,3.067L8.576,6.738   C8.88,5.301,8.45,3.842,7.405,2.796C6.197,1.585,4.75,1.463,3.744,1.572C3.575,1.591,3.436,1.715,3.398,1.881   C3.361,2.048,3.433,2.22,3.577,2.31c0.149,0.092,0.271,0.186,0.37,0.285c0.786,0.786,0.786,2.065,0,2.852   c-0.783,0.786-2.063,0.788-2.851,0c-0.1-0.1-0.193-0.22-0.285-0.368C0.721,4.934,0.548,4.862,0.383,4.9   c-0.166,0.038-0.29,0.177-0.309,0.347c-0.108,1,0.016,2.446,1.226,3.655c1.049,1.047,2.509,1.478,3.942,1.172l2.212,2.214   c-0.028,0.02-0.062,0.028-0.087,0.052c-3.313,3-5.223,4.845-5.648,5.305c-0.71,0.774-0.738,1.677-0.076,2.417   c0.089,0.098,0.408,0.425,0.736,0.752c0.327,0.328,0.655,0.649,0.756,0.74c0.354,0.317,0.738,0.479,1.143,0.479   c0.552,0,0.997-0.304,1.275-0.56c0.38-0.353,2.241-2.265,5.301-5.646c0.024-0.026,0.033-0.059,0.053-0.087l1.582,1.583   c-0.305,1.437,0.125,2.896,1.171,3.943c0.885,0.884,1.96,1.261,3.004,1.261c1.182,0,2.323-0.483,3.104-1.261   c0.778-0.778,1.237-1.866,1.261-2.984c0.023-1.177-0.424-2.287-1.261-3.123c-1.048-1.048-2.511-1.476-3.942-1.172l-2.076-2.075   l3.067-3.067l0.079,0.079c0.008,0.007,0.015,0.014,0.022,0.021c0.007,0.009,0.015,0.017,0.023,0.025   c0.414,0.413,0.991,0.443,1.532,0.099c-0.338,0.551-0.261,1.168,0.224,1.66c0.31,0.313,0.62,0.624,0.933,0.932   c0.277,0.273,0.616,0.41,0.956,0.41c0.342,0,0.685-0.139,0.963-0.416c0.662-0.659,1.323-1.32,1.983-1.983   c0.564-0.569,0.565-1.363,0.002-1.931L23.411,7.615z M5.264,9.248C4.04,9.575,2.765,9.236,1.867,8.337   C1.224,7.695,0.957,6.965,0.874,6.306c1.102,0.796,2.649,0.696,3.64-0.293c0.99-0.991,1.087-2.542,0.291-3.642   c0.66,0.082,1.392,0.347,2.033,0.99C7.737,4.259,8.076,5.53,7.748,6.76C7.712,6.898,7.751,7.045,7.852,7.146l2.923,2.923   l-2.204,2.204l-2.92-2.922C5.55,9.25,5.402,9.21,5.264,9.248z M5.01,20.886c-0.291,0.268-0.839,0.523-1.34,0.073   c-0.097-0.087-0.411-0.395-0.726-0.71c-0.315-0.315-0.623-0.629-0.707-0.722c-0.142-0.158-0.572-0.64,0.07-1.339   c0.351-0.379,2.18-2.162,5.597-5.255l-0.269-0.296l0.379,0.298l0.229,0.229c0,0,0,0.001,0.001,0.001c0,0,0.001,0,0.001,0.001   l1.84,1.841c0,0,0.001,0.001,0.001,0.002s0.001,0.001,0.002,0.001l0.171,0.171c0.03,0.03,0.031,0.077,0.001,0.11   C7.218,18.652,5.38,20.542,5.01,20.886z M15.417,14.711c0.102,0.101,0.248,0.141,0.387,0.104c1.228-0.328,2.499,0.012,3.397,0.91   c0.682,0.681,1.047,1.584,1.027,2.541c-0.019,0.914-0.394,1.802-1.026,2.435c-1.199,1.196-3.441,1.536-4.977,0   c-0.897-0.898-1.238-2.169-0.91-3.399c0.036-0.138-0.003-0.285-0.104-0.386l-2.233-2.235l2.204-2.204L15.417,14.711z M10.37,14.159   l-1.277-1.277l5.878-5.877l1.277,1.277L10.37,14.159z M22.965,9.107c-0.659,0.661-1.318,1.321-1.98,1.979   c-0.249,0.248-0.545,0.248-0.792,0.004c-0.311-0.306-0.619-0.614-0.925-0.924c-0.259-0.263-0.266-0.518-0.021-0.803   c0.282-0.33,0.296-0.762,0.033-1.052c-0.146-0.161-0.349-0.242-0.554-0.242c-0.184,0-0.37,0.066-0.519,0.199   c-0.163,0.147-0.474,0.362-0.701,0.135c-0.007-0.007-0.014-0.014-0.021-0.02c-0.007-0.008-0.015-0.017-0.022-0.025L14.8,5.696   c-0.027-0.028,0.001-0.256,0.204-0.5c0.315-0.379,0.297-0.701-0.06-1.044c-0.45-0.433-1.303-0.96-1.987-1.384   c-0.135-0.083-0.281-0.174-0.417-0.259c1.177-0.303,3.952-0.649,5.837,1.236c0.229,0.229,0.462,0.454,0.696,0.68   c0.195,0.188,0.391,0.376,0.583,0.567l0.11,0.109c0.146,0.145,0.294,0.29,0.436,0.44c0.2,0.212,0.207,0.353,0.188,0.463   c-0.003,0.016-0.015,0.061-0.067,0.143c-0.092,0.147-0.262,0.535,0.144,0.94c0.401,0.401,0.759,0.246,0.938,0.118   c0.079-0.056,0.182-0.107,0.415,0.01c0.069,0.035,0.146,0.094,0.235,0.179c0.267,0.258,0.527,0.521,0.788,0.785l0.123,0.125   C23.219,8.558,23.219,8.851,22.965,9.107z"/></g><text x="0" y="39" fill="#000000" font-size="5px" font-weight="bold" font-family="'Helvetica Neue', Helvetica, Arial-Unicode, Arial, Sans-serif">Created by Atif Arshad</text><text x="0" y="44" fill="#000000" font-size="5px" font-weight="bold" font-family="'Helvetica Neue', Helvetica, Arial-Unicode, Arial, Sans-serif">from the Noun Project</text></svg>